# xmcd
#
# Track frame offsets:
#	150
#	16583
#	32106
#	48632
#	67573
#	89657
#	111467
#	126101
#	141477
#	156785
#	174960
#
# Disc length: 2517 seconds
#
# Revision: 0
# Processed by: cddbd v1.5.1PL0 Copyright (c) Steve Scherf et al.
# Submitted via: QuickRip XP 1.3 Using QuickRip XP for Submission
#
DISCID=8f09d30b
DTITLE=The Scene  - The Scene - Open
DYEAR=1992
DGENRE=Rock
TTITLE0=Rode Wijn
TTITLE1=Alle Mannen
TTITLE2=Wat is Liefde
TTITLE3=Tot in de Eeuwigheid
TTITLE4=Willem II
TTITLE5=Vreemde Eend
TTITLE6=Klein Liedje
TTITLE7=Schaam Me
TTITLE8=Verlangen
TTITLE9=De Steen
TTITLE10=
EXTD=
EXTT0=
EXTT1=
EXTT2=
EXTT3=
EXTT4=
EXTT5=
EXTT6=
EXTT7=
EXTT8=
EXTT9=
EXTT10=
PLAYORDER=
